<svg version="1.2" xmlns="http://www.w3.org/2000/svg" viewBox="0 0 190 189" width="190" height="189"><style>.A{fill:#37c2bc}.B{fill:#fff}</style><rect class="A" x=".9" y="0" width="188.2" height="188.2" rx="15.7"></rect><path fill-rule="evenodd" class="B" d="m59.1 53.2q0-9.8 5.7-15.9q5.7-6.2 15.1-6.2q8.9 0 14.3 6q5.5 5.9 5.5 15.2q0 9.7-5.7 15.8q-5.6 6-14.8 6q-8.9 0-14.5-5.8q-5.6-5.9-5.6-15.1zm9.3-0.5q0 6 3 9.9q2.9 3.8 8 3.8q5.2 0 8.1-3.6q2.9-3.7 2.9-10q0-6.4-2.8-10.2q-2.8-3.8-8-3.8q-5.2 0-8.2 3.9q-3 3.8-3 10z"/><path class="B" d="m165.8 61.9q0 5.9-4.2 9.1q-4.2 3.1-12.1 3.1q-6.7 0-11.1-2c-0.4-0.2-0.6-0.5-0.6-0.8v-6.7c0-0.7 0.8-1.1 1.3-0.7q4.6 3.2 10.1 3.2q3.7 0 5.5-1.3q1.8-1.2 1.8-3.2q0-1.7-1.4-3.2q-1.5-1.5-7.7-4q-9.7-4.2-9.7-12.1q0-5.7 4.4-9q4.4-3.2 11.7-3.2q5.7 0 9.7 1.4c0.3 0.1 0.5 0.4 0.5 0.8v6.3c0 0.6-0.7 1-1.2 0.7q-3.8-2.1-8.6-2.1q-3.3 0-5.2 1.2q-0.5 0.3-0.8 0.6q-0.1 0.1-0.1 0.1q-0.2 0.2-0.4 0.4q0 0.1 0 0.1q-0.2 0.3-0.4 0.6q0 0 0 0.1q-0.1 0.3-0.2 0.6q0 0 0 0q0 0.3 0 0.7q0 0 0 0q0 0 0 0.1c0 0.7 0.2 1.5 0.6 2.1q0.3 0.4 0.7 0.8q1.3 1.3 6.6 3.6q6.2 2.7 8.5 5.6q2.3 3 2.3 7.1z"/><path fill-rule="evenodd" class="B" d="m54.7 61.1q0 5.6-4 9q-4 3.3-11 3.3h-14.7c-0.5 0-0.8-0.4-0.8-0.8v-39.9c0-0.5 0.3-0.9 0.8-0.9h13.9q6.8 0 10.5 2.6q3.7 2.6 3.7 7.2q0 3.3-2.3 5.9q-2.3 2.5-5.8 3.5v0.1q4.4 0.5 7.1 3.2q2.6 2.7 2.6 6.8zm-21.7-12.4h4.2q1.8 0 3.1-0.5q0.4-0.1 0.8-0.3q0 0 0 0q0.5-0.3 0.9-0.6q0 0 0 0q0 0 0 0c1.1-1 1.8-2.3 1.8-3.8c0-2.8-2.2-5-5-5c-0.1 0-1.4-0.1-2-0.1h-3.8zm11.2 15.9q0 0 0-0.1q0.2-0.1 0.3-0.3q0-0.1 0.1-0.2q0.1-0.1 0.1-0.1c0.5-0.9 0.8-1.8 0.8-2.9c0-1-0.3-2-0.8-2.9q0 0 0 0c-1-1.6-2.8-2.7-4.8-2.7c-0.2 0-1.3 0-1.7 0h-5.2v11.4h5.3q1.7 0 3.1-0.4c0.9-0.3 1.8-0.8 2.5-1.5q0.1-0.1 0.3-0.3z"/><path class="B" d="m132.8 61.9q0 5.9-4.2 9.1q-4.3 3.1-12.1 3.1q-6.7 0-11.2-2c-0.3-0.2-0.5-0.5-0.5-0.8v-6.7c0-0.7 0.8-1.1 1.3-0.7q4.5 3.2 10.1 3.2q3.6 0 5.5-1.3q1.8-1.2 1.8-3.2q0-1.7-1.5-3.2q-1.4-1.5-7.6-4q-9.7-4.2-9.7-12.1q0-5.7 4.4-9q4.4-3.2 11.7-3.2q5.7 0 9.7 1.4c0.3 0.1 0.5 0.4 0.5 0.8v6.3c0 0.6-0.7 1-1.3 0.7q-3.7-2.1-8.5-2.1q-3.3 0-5.2 1.2q-0.5 0.3-0.9 0.6q0 0.1-0.1 0.1q-0.1 0.2-0.3 0.4q0 0.1-0.1 0.1q-0.1 0.3-0.3 0.6q0 0 0 0.1q-0.1 0.3-0.2 0.6q0 0 0 0q-0.1 0.3-0.1 0.7q0 0 0 0q0 0 0 0.1c0 0.7 0.3 1.5 0.7 2.1q0.3 0.4 0.6 0.8q1.4 1.3 6.7 3.6q6.2 2.7 8.5 5.6q2.3 3 2.3 7.1z"/><path fill-rule="evenodd" class="B" d="m122.2 103.9v34.9q0 0 0 0q1.5-0.3 3.1-0.6c0.8-0.2 1.6 0.5 1.5 1.4c-0.1 1.7-0.2 3.2-0.3 5c0 0.6-0.4 1.1-1 1.2q-1.6 0.3-3.3 0.6q0 0 0 0.1v9.3c0 0.7-0.6 1.3-1.3 1.3h-5.4c-0.7 0-1.3-0.6-1.3-1.3v-7.8q0 0-0.1 0q-6.6 1.2-13.9 2.6c-0.7 0.2-1.4-0.3-1.5-1l-1-5.3c-0.1-0.7 0.4-1.4 1.1-1.5q0.3 0 0.7-0.1q0 0 0 0v-38.8q0 0 0 0c-0.7 0-1.3-0.6-1.3-1.3v-4.8c0-0.7 0.6-1.3 1.3-1.3h24.1c0.8 0 1.4 0.6 1.4 1.3v4.8c0 0.7-0.6 1.3-1.4 1.3h-1.4q0 0 0 0zm-9.3 36.5v-7.3q0 0 0 0h-4.1q0 0 0 0v8q0 0 0 0q2-0.3 4.1-0.6q0 0 0-0.1zm0-14.7v-7.1q0 0 0 0h-4.1q0 0 0 0v7.1q0 0 0 0h4.1q0 0 0 0zm0-14.5v-7.3q0 0 0 0h-4.1q0 0 0 0v7.3q0 0 0 0h4.1q0 0 0 0z"/><path fill-rule="evenodd" class="B" d="m162.5 123.2c0 0.7-0.6 1.2-1.3 1.2h-33c-0.7 0-1.3-0.5-1.3-1.2v-22.9c0-1.4 1.2-2.6 2.6-2.6h9.5c0.7 0 1.3-0.6 1.3-1.3v-3c0-0.7 0.6-1.2 1.3-1.2h6.2c0.8 0 1.3 0.5 1.3 1.2v3c0 0.7 0.6 1.3 1.3 1.3h9.4h0.1c1.4 0 2.6 1.2 2.6 2.6zm-22.2-8.7h-6.1v3.7h6.1zm0-9.2h-6.1v3.4h6.1zm14.9 9.3h-6.1v3.7h6.1zm0-9.2h-6.1v3.7h6.1z"/><path fill-rule="evenodd" class="B" d="m84.8 109.9v39.6h5.7c0.8 0 1.3 0.6 1.3 1.3v4.9c0 0.7-0.5 1.3-1.3 1.3h-65c-0.8 0-1.3-0.6-1.3-1.3v-4.9c0-0.7 0.5-1.3 1.3-1.3h5.9v-39.6c0-0.8 0.6-1.5 1.4-1.5h20.7v-4.5h-26.6c-0.7 0-1.3-0.6-1.3-1.3v-4.8c0-0.8 0.6-1.3 1.3-1.3h26.6v-3.4c0-0.7 0.5-1.2 1.2-1.2h6.7c0.7 0 1.3 0.5 1.3 1.2v3.4h26.6c0.7 0 1.2 0.5 1.2 1.3v4.8c0 0.7-0.5 1.3-1.2 1.3h-26.6v4.5h20.6c0.8 0 1.5 0.7 1.5 1.5zm-9.2 35.6h-35v4h35zm0-9.9h-35v4h35zm0-9.9h-35v4h35zm0-9.6h-35v3.7h35z"/><path class="B" d="m164.4 134.6h-22l-0.4 2.8h18.3c0.7 0 1.3 0.6 1.3 1.3l-0.3 6.1q-0.1 2.2-0.3 4.8c-0.4 5.5-3.9 7.1-10.4 7.5h-12.4c-0.6 0-1.1-0.5-1.3-1q-0.8-3.4-1.4-5.5c-0.2-0.8 0.5-1.7 1.3-1.6q6.4 0.2 11.9 0.1c2.3 0 3.4-1 3.5-3.1c0.1-0.9 0 0 0.1-1.2h-15.8h-4.2c-0.8 0-1.4-0.8-1.3-1.6l1.8-8.6h-7.4c-0.7 0-1.3-0.6-1.3-1.3v-4.8c0-0.7 0.6-1.3 1.3-1.3h39c0.7 0 1.3 0.6 1.3 1.3v4.8c0 0.7-0.6 1.3-1.3 1.3z"/></svg>